<svg width="680" height="331" viewBox="0 0 680 331" fill="none" xmlns="http://www.w3.org/2000/svg">
<rect y="293.508" width="680" height="3" rx="1.5" fill="#36364D"/>
<path d="M209.5 205.008C209.5 216.725 200.284 227.707 184.536 235.849C168.865 243.952 147.111 249.008 123 249.008C98.889 249.008 77.1349 243.952 61.4635 235.849C45.7161 227.707 36.5 216.725 36.5 205.008C36.5 193.292 45.7161 182.309 61.4635 174.167C77.1349 166.065 98.889 161.008 123 161.008C147.111 161.008 168.865 166.065 184.536 174.167C200.284 182.309 209.5 193.292 209.5 205.008Z" fill="#4E51A6" stroke="#36364D" stroke-width="3"/>
<path d="M283.5 278.36C283.5 285.569 276.772 291.927 267.798 291.927C258.824 291.927 252.096 285.569 252.096 278.36C252.096 271.15 258.824 264.792 267.798 264.792C276.772 264.792 283.5 271.15 283.5 278.36Z" stroke="#36364D" stroke-width="5"/>
<mask id="path-4-inside-1" fill="white">
<rect x="227" y="250.103" width="43.9362" height="55.4054" rx="2"/>
</mask>
<rect x="227" y="250.103" width="43.9362" height="55.4054" rx="2" fill="#FF9F80" stroke="#36364D" stroke-width="6" mask="url(#path-4-inside-1)"/>
<rect x="249.596" y="295.535" width="8.78723" height="3.32432" rx="1.66216" fill="#36364D"/>
<rect x="234.532" y="295.535" width="12.5532" height="3.32432" rx="1.66216" fill="#36364D"/>
<rect x="234.532" y="298.86" width="26.5946" height="3.76596" rx="1.88298" transform="rotate(-90 234.532 298.86)" fill="#36364D"/>
<rect x="240.809" y="245.67" width="7.75676" height="3.76596" rx="1.88298" transform="rotate(-90 240.809 245.67)" fill="#36364D"/>
<rect x="247.085" y="243.454" width="19.9459" height="3.76596" rx="1.88298" transform="rotate(-90 247.085 243.454)" fill="#36364D"/>
<path d="M255.245 244.562C254.205 244.562 253.362 243.719 253.362 242.68V232.04C253.362 231 254.205 230.157 255.245 230.157V230.157C256.285 230.157 257.128 231 257.128 232.04V242.68C257.128 243.719 256.285 244.562 255.245 244.562V244.562Z" fill="#36364D"/>
<rect x="24" y="197.508" width="195" height="123" rx="8" fill="#EDEDF6"/>
<path d="M24 294.554H219V310.251C219 314.67 215.418 318.251 211 318.251H32C27.5817 318.251 24 314.67 24 310.251V294.554Z" fill="#DBDCED"/>
<path d="M219 222.334L24 222.334V206.637C24 202.219 27.5817 198.637 32 198.637L211 198.637C215.418 198.637 219 202.219 219 206.637V222.334Z" fill="#DBDCED"/>
<rect x="25.5" y="199.008" width="192" height="120" rx="6.5" stroke="#36364D" stroke-width="3"/>
<path d="M138.176 256.87C136.384 253.087 133.329 250.004 129.532 248.146C125.735 246.289 121.43 245.772 117.351 246.684C113.273 247.596 109.673 249.88 107.164 253.147C104.656 256.413 103.395 260.461 103.596 264.6C103.797 268.739 105.447 272.713 108.266 275.845C111.084 278.977 114.897 281.073 119.054 281.777C123.211 282.48 127.455 281.746 131.063 279.702C134.671 277.657 137.42 274.427 138.841 270.562L129.714 264.227L138.176 256.87Z" fill="white"/>
<path d="M129.275 262.96L127.814 264.209L129.436 265.305L137.721 270.903C136.254 274.03 133.812 276.654 130.718 278.396C127.277 280.333 123.25 281.056 119.325 280.445C115.402 279.834 111.827 277.929 109.206 275.062C106.584 272.197 105.072 268.541 104.927 264.717C104.782 260.893 106.014 257.129 108.422 254.071C110.831 251.013 114.265 248.854 118.139 247.966C122.012 247.077 126.078 247.516 129.643 249.198C132.864 250.718 135.498 253.168 137.19 256.192L129.275 262.96Z" stroke="#36364D" stroke-width="3"/>
<rect width="10.1914" height="3.44134" rx="1.72067" transform="matrix(0.738332 -0.674437 0.699225 0.714902 119.749 241.621)" fill="#36364D"/>
<rect x="132.593" y="308.096" width="17.515" height="3.38531" rx="1.69266" fill="#36364D"/>
<rect x="153.611" y="308.096" width="35.0299" height="3.38531" rx="1.69266" fill="#36364D"/>
<rect x="192.144" y="308.096" width="17.515" height="3.38531" rx="1.69266" fill="#36364D"/>
<rect x="206.156" y="311.481" width="44.0091" height="3.50299" rx="1.7515" transform="rotate(-90 206.156 311.481)" fill="#36364D"/>
<rect x="33.3413" y="231.362" width="24.8256" height="3.50299" rx="1.7515" transform="rotate(-90 33.3413 231.362)" fill="#36364D"/>
<rect x="33.3413" y="206.536" width="37.3653" height="3.38531" rx="1.69266" fill="#36364D"/>
<rect x="75.3772" y="206.536" width="10.509" height="3.38531" rx="1.69266" fill="#36364D"/>
<path d="M92.7733 66.439L93.081 67.4739L94.16 67.5107L112.874 68.1486L114.615 68.208L114.415 66.4775L113.429 57.9391L122.993 64.2987L131.597 71.965L131.598 71.966C132.248 72.5439 132.774 72.9665 133.195 73.235C133.4 73.3653 133.654 73.5083 133.937 73.5958C134.177 73.6704 134.774 73.8088 135.374 73.4428C135.709 73.2382 135.902 72.9655 136.014 72.7141C139.829 74.5185 142.758 73.9054 144.772 73.4841C145.087 73.4181 145.38 73.3568 145.65 73.3103C146.646 73.1386 147.142 73.1871 147.577 73.4542C148.085 73.7657 148.807 74.5603 149.694 76.6659C150.48 78.5336 151.297 79.8991 151.92 80.9019C151.998 81.0273 152.071 81.1434 152.139 81.2519C152.351 81.5912 152.517 81.8556 152.651 82.0928C152.655 82.1 152.659 82.1071 152.663 82.1141C151.978 82.3962 150.779 82.7164 148.719 83.2265C147.999 83.4048 146.944 83.3727 145.482 83.0648C144.044 82.7622 142.359 82.2263 140.445 81.5337C138.958 80.9956 137.294 80.3459 135.524 79.655C132.893 78.6277 130.028 77.5093 127.163 76.5307C117.482 73.2225 106.041 70.8222 96.696 76.9271C88.2513 82.4442 86.5583 91.0724 85.7632 97.5837C85.6663 98.3772 85.5868 99.1017 85.5114 99.7885C85.4249 100.576 85.3439 101.314 85.2484 102.05C85.0751 103.384 84.8834 104.442 84.613 105.239C84.3392 106.047 84.0526 106.38 83.8346 106.519C83.6966 106.608 83.4365 106.713 82.9083 106.65C80.1262 102.936 78.9581 100.729 78.5772 99.392C78.3884 98.729 78.4245 98.3838 78.4687 98.2164C78.5098 98.0608 78.5942 97.916 78.8005 97.7122C78.9108 97.6032 79.0406 97.4921 79.2117 97.3512C79.2389 97.3288 79.2678 97.3051 79.2981 97.2803C79.4417 97.1626 79.616 97.0197 79.7792 96.8735C80.1873 96.5077 80.6879 95.984 80.978 95.2136C81.5638 93.6575 81.055 91.8098 79.6424 89.392C78.6886 87.1487 77.5567 85.2734 76.5362 83.6877C76.2674 83.27 76.0124 82.8809 75.7726 82.5149C75.0575 81.4238 74.4769 80.5379 74.0664 79.712C73.5329 78.6386 73.4796 78.0244 73.6369 77.5535C73.7445 77.2311 74.004 76.8138 74.5949 76.3007C75.3961 78.2504 76.2402 79.7077 77.1559 80.6941C77.7614 81.3462 78.4458 81.8444 79.2217 82.1054C80.0171 82.373 80.8122 82.3583 81.5585 82.1308C82.9624 81.7028 84.1219 80.5468 85.0565 79.3353C86.0262 78.0784 86.937 76.515 87.7774 74.9303C88.4037 73.7493 89.0138 72.5113 89.5894 71.3436C89.7864 70.944 89.9793 70.5526 90.1675 70.1745C90.9218 68.6584 91.5915 67.3724 92.1902 66.4679C92.34 66.2416 92.4746 66.0559 92.5938 65.9063C92.6495 66.0504 92.71 66.2261 92.7733 66.439ZM133.176 72.0419C133.176 72.0417 133.176 72.0378 133.175 72.0308C133.176 72.0385 133.176 72.0421 133.176 72.0419ZM93.0312 65.4592C93.0312 65.4594 93.0284 65.4612 93.0228 65.4641C93.0285 65.4605 93.0313 65.459 93.0312 65.4592Z" fill="#FAC094" stroke="#36364D" stroke-width="3"/>
<path d="M169.704 64.9221L168.963 65.7494L167.955 65.2806L150.202 57.0199L148.692 56.3171L149.548 54.8885L153.871 47.6803L142.195 48.8252L131.16 51.5546L131.158 51.555C130.323 51.7607 129.663 51.8876 129.162 51.9267C128.917 51.9458 128.628 51.9514 128.34 51.8978C128.085 51.8503 127.547 51.7033 127.182 51.174C126.933 50.8122 126.878 50.4426 126.895 50.1433L126.804 50.1394C122.525 49.9579 120.048 48.0516 118.325 46.7255C118.055 46.5177 117.803 46.3241 117.566 46.1537C116.678 45.5147 116.158 45.3058 115.624 45.3382C115.046 45.3733 114.089 45.7198 112.457 47.1495C110.981 48.4424 109.675 49.2724 108.697 49.868C108.573 49.9433 108.459 50.0126 108.352 50.077C108.06 50.2536 107.829 50.3939 107.631 50.5239C108.169 51.1128 109.186 51.9784 110.934 53.4185C112.345 54.5803 114.759 55.2736 118.173 55.8503C119.43 56.0625 120.847 56.2616 122.352 56.4732C124.684 56.8011 127.229 57.1588 129.723 57.6418C138.15 59.2739 147.515 62.5554 153.759 72.1925C159.329 80.7897 159.797 89.0372 160.079 95.1842C160.083 95.2648 160.086 95.3449 160.09 95.4245C160.229 98.4539 160.334 100.75 160.879 102.461C161.146 103.297 161.495 103.906 161.942 104.354C162.298 104.71 162.768 105.017 163.426 105.242C167.468 103.269 169.391 101.88 170.242 100.906C170.658 100.431 170.743 100.138 170.764 99.9938C170.784 99.8488 170.765 99.6745 170.643 99.3762C170.58 99.2215 170.499 99.0568 170.394 98.8505C170.377 98.8173 170.359 98.7822 170.34 98.7456C170.252 98.5737 170.146 98.3688 170.052 98.1657C169.821 97.6655 169.559 96.9773 169.588 96.1578C169.65 94.4475 170.903 93.0061 173.175 91.5244C176.532 88.5767 178.868 86.0581 179.855 83.5445C180.632 81.567 180.623 79.4536 179.215 76.8721C177.74 78.2362 176.467 79.1848 175.359 79.7449C173.937 80.4639 172.389 80.7183 171.119 79.7698C170.014 78.9445 169.615 77.5256 169.437 76.3371C169.247 75.0621 169.248 73.5683 169.313 72.1053C169.362 70.9893 169.451 69.8298 169.534 68.7463C169.56 68.4046 169.586 68.0704 169.61 67.7476C169.693 66.6196 169.749 65.6475 169.741 64.8817C169.729 64.895 169.717 64.9084 169.704 64.9221ZM129.744 50.8077C129.744 50.8076 129.746 50.8043 129.75 50.7978C129.746 50.8045 129.744 50.8077 129.744 50.8077ZM169.61 63.6314C169.61 63.6315 169.611 63.6347 169.614 63.6404C169.611 63.634 169.61 63.6312 169.61 63.6314ZM170.654 64.0488C170.666 64.044 170.672 64.0405 170.672 64.04C170.672 64.0395 170.666 64.0419 170.654 64.0488Z" fill="#FAC094" stroke="#36364D" stroke-width="3"/>
<rect x="103.5" y="129.008" width="42" height="52" rx="18.5" fill="#FBD7CD" stroke="#36364D" stroke-width="3"/>
<rect x="83.5" y="38.0083" width="82" height="112" rx="38.5" fill="#FBD7CD" stroke="#36364D" stroke-width="3"/>
<mask id="path-29-inside-2" fill="white">
<path d="M110.529 94.3561C111.341 94.3561 112.017 93.6887 111.828 92.8984C111.724 92.464 111.574 92.0388 111.38 91.6288C110.97 90.7681 110.372 89.9934 109.621 89.3528C108.87 88.7122 107.983 88.2192 107.015 87.9047C106.046 87.5901 105.018 87.4605 103.992 87.524C102.967 87.5875 101.967 87.8427 101.054 88.2738C100.141 88.7049 99.3354 89.3027 98.6862 90.0301C98.0369 90.7574 97.5584 91.5989 97.2801 92.5021C97.144 92.9441 97.0572 93.3962 97.0204 93.8517C96.9561 94.6462 97.6999 95.2024 98.4909 95.104V95.104C99.3096 95.0021 99.8568 94.2251 100.058 93.4249C100.074 93.3595 100.093 93.2943 100.113 93.2295C100.282 92.6806 100.573 92.1693 100.967 91.7273C101.362 91.2853 101.851 90.922 102.406 90.66C102.961 90.3981 103.568 90.243 104.192 90.2044C104.815 90.1658 105.44 90.2445 106.028 90.4357C106.616 90.6269 107.155 90.9264 107.612 91.3157C108.068 91.705 108.432 92.1758 108.681 92.6988C108.715 92.7721 108.748 92.8461 108.778 92.9209C109.081 93.6747 109.716 94.3561 110.529 94.3561V94.3561Z"/>
</mask>
<path d="M110.529 94.3561C111.341 94.3561 112.017 93.6887 111.828 92.8984C111.724 92.464 111.574 92.0388 111.38 91.6288C110.97 90.7681 110.372 89.9934 109.621 89.3528C108.87 88.7122 107.983 88.2192 107.015 87.9047C106.046 87.5901 105.018 87.4605 103.992 87.524C102.967 87.5875 101.967 87.8427 101.054 88.2738C100.141 88.7049 99.3354 89.3027 98.6862 90.0301C98.0369 90.7574 97.5584 91.5989 97.2801 92.5021C97.144 92.9441 97.0572 93.3962 97.0204 93.8517C96.9561 94.6462 97.6999 95.2024 98.4909 95.104V95.104C99.3096 95.0021 99.8568 94.2251 100.058 93.4249C100.074 93.3595 100.093 93.2943 100.113 93.2295C100.282 92.6806 100.573 92.1693 100.967 91.7273C101.362 91.2853 101.851 90.922 102.406 90.66C102.961 90.3981 103.568 90.243 104.192 90.2044C104.815 90.1658 105.44 90.2445 106.028 90.4357C106.616 90.6269 107.155 90.9264 107.612 91.3157C108.068 91.705 108.432 92.1758 108.681 92.6988C108.715 92.7721 108.748 92.8461 108.778 92.9209C109.081 93.6747 109.716 94.3561 110.529 94.3561V94.3561Z" stroke="#36364D" stroke-width="6" mask="url(#path-29-inside-2)"/>
<mask id="path-30-inside-3" fill="white">
<path d="M149.302 95.0506C150.107 95.1558 150.863 94.5815 150.779 93.7734C150.732 93.3292 150.639 92.8881 150.498 92.4564C150.204 91.55 149.711 90.7043 149.049 89.9718C148.388 89.2393 147.572 88.6356 146.653 88.1983C145.733 87.761 144.73 87.4993 143.705 87.4295C142.68 87.3596 141.656 87.4832 140.695 87.7924C139.734 88.1017 138.857 88.5901 138.119 89.2272C137.381 89.8644 136.798 90.6367 136.405 91.4963C136.212 91.917 136.068 92.3541 135.972 92.8009C135.806 93.5804 136.471 94.2282 137.268 94.2331V94.2331C138.093 94.2381 138.736 93.5385 139.04 92.7711C139.064 92.7084 139.091 92.6461 139.119 92.5844C139.358 92.062 139.712 91.5927 140.161 91.2055C140.609 90.8183 141.142 90.5215 141.726 90.3336C142.31 90.1457 142.933 90.0706 143.555 90.113C144.178 90.1555 144.788 90.3145 145.347 90.5803C145.905 90.846 146.401 91.2128 146.803 91.658C147.205 92.1031 147.505 92.617 147.684 93.1678C147.709 93.245 147.731 93.3226 147.751 93.4007C147.955 94.1874 148.496 94.9453 149.302 95.0506V95.0506Z"/>
</mask>
<path d="M149.302 95.0506C150.107 95.1558 150.863 94.5815 150.779 93.7734C150.732 93.3292 150.639 92.8881 150.498 92.4564C150.204 91.55 149.711 90.7043 149.049 89.9718C148.388 89.2393 147.572 88.6356 146.653 88.1983C145.733 87.761 144.73 87.4993 143.705 87.4295C142.68 87.3596 141.656 87.4832 140.695 87.7924C139.734 88.1017 138.857 88.5901 138.119 89.2272C137.381 89.8644 136.798 90.6367 136.405 91.4963C136.212 91.917 136.068 92.3541 135.972 92.8009C135.806 93.5804 136.471 94.2282 137.268 94.2331V94.2331C138.093 94.2381 138.736 93.5385 139.04 92.7711C139.064 92.7084 139.091 92.6461 139.119 92.5844C139.358 92.062 139.712 91.5927 140.161 91.2055C140.609 90.8183 141.142 90.5215 141.726 90.3336C142.31 90.1457 142.933 90.0706 143.555 90.113C144.178 90.1555 144.788 90.3145 145.347 90.5803C145.905 90.846 146.401 91.2128 146.803 91.658C147.205 92.1031 147.505 92.617 147.684 93.1678C147.709 93.245 147.731 93.3226 147.751 93.4007C147.955 94.1874 148.496 94.9453 149.302 95.0506V95.0506Z" stroke="#36364D" stroke-width="6" mask="url(#path-30-inside-3)"/>
<mask id="path-31-inside-4" fill="white">
<path d="M119.469 103.861C118.776 103.864 118.202 104.435 118.354 105.111C118.612 106.262 119.222 107.326 120.125 108.166C121.345 109.302 122.999 109.935 124.723 109.926C126.447 109.916 128.099 109.265 129.316 108.116C130.214 107.268 130.821 106.2 131.077 105.05C131.229 104.369 130.648 103.799 129.95 103.803V103.803C129.257 103.807 128.717 104.387 128.478 105.037C128.283 105.565 127.963 106.052 127.534 106.456C126.788 107.161 125.776 107.56 124.72 107.565C123.664 107.571 122.65 107.183 121.903 106.487C121.476 106.09 121.156 105.612 120.96 105.09C120.714 104.438 120.166 103.857 119.469 103.861V103.861Z"/>
</mask>
<path d="M119.469 103.861C118.776 103.864 118.202 104.435 118.354 105.111C118.612 106.262 119.222 107.326 120.125 108.166C121.345 109.302 122.999 109.935 124.723 109.926C126.447 109.916 128.099 109.265 129.316 108.116C130.214 107.268 130.821 106.2 131.077 105.05C131.229 104.369 130.648 103.799 129.95 103.803V103.803C129.257 103.807 128.717 104.387 128.478 105.037C128.283 105.565 127.963 106.052 127.534 106.456C126.788 107.161 125.776 107.56 124.72 107.565C123.664 107.571 122.65 107.183 121.903 106.487C121.476 106.09 121.156 105.612 120.96 105.09C120.714 104.438 120.166 103.857 119.469 103.861V103.861Z" fill="#C4C4C4"/>
<path d="M120.96 105.09L123.767 104.032L120.96 105.09ZM128.478 105.037L131.292 106.075L128.478 105.037ZM118.354 105.111L115.426 105.767L118.354 105.111ZM115.426 105.767C115.82 107.522 116.746 109.119 118.081 110.362L122.169 105.971C121.699 105.533 121.404 105.002 121.281 104.455L115.426 105.767ZM118.081 110.362C119.881 112.038 122.28 112.939 124.74 112.926L124.706 106.926C123.718 106.931 122.809 106.567 122.169 105.971L118.081 110.362ZM124.74 112.926C127.199 112.912 129.588 111.985 131.376 110.297L127.257 105.934C126.61 106.545 125.695 106.92 124.706 106.926L124.74 112.926ZM131.376 110.297C132.698 109.048 133.616 107.452 134.006 105.701L128.149 104.398C128.026 104.948 127.73 105.487 127.257 105.934L131.376 110.297ZM125.663 103.999C125.631 104.086 125.572 104.183 125.474 104.275L129.594 108.637C130.353 107.921 130.935 107.045 131.292 106.075L125.663 103.999ZM125.474 104.275C125.299 104.441 125.024 104.564 124.703 104.565L124.736 110.565C126.528 110.555 128.278 109.881 129.594 108.637L125.474 104.275ZM124.703 104.565C124.383 104.567 124.115 104.448 123.947 104.292L119.858 108.683C121.186 109.919 122.945 110.575 124.736 110.565L124.703 104.565ZM123.947 104.292C123.854 104.205 123.798 104.114 123.767 104.032L118.152 106.148C118.515 107.11 119.099 107.976 119.858 108.683L123.947 104.292ZM123.767 104.032C123.31 102.819 121.953 100.847 119.452 100.861L119.485 106.861C118.947 106.864 118.569 106.63 118.391 106.472C118.231 106.33 118.175 106.208 118.152 106.148L123.767 104.032ZM134.006 105.701C134.678 102.681 132.058 100.791 129.934 100.803L129.967 106.803C129.504 106.805 129.018 106.62 128.646 106.224C128.241 105.794 127.99 105.112 128.149 104.398L134.006 105.701ZM129.934 100.803C127.449 100.817 126.112 102.782 125.663 103.999L131.292 106.075C131.27 106.137 131.213 106.261 131.053 106.406C130.876 106.566 130.501 106.8 129.967 106.803L129.934 100.803ZM121.281 104.455C121.44 105.166 121.193 105.843 120.794 106.274C120.426 106.67 119.946 106.858 119.485 106.861L119.452 100.861C117.339 100.872 114.755 102.768 115.426 105.767L121.281 104.455Z" fill="#36364D" mask="url(#path-31-inside-4)"/>
<path d="M144.828 16.5015C145.099 16.3824 145.33 16.2932 145.523 16.2279L145.425 16.6019L145.604 17.0565L150.884 30.4967L146.611 40.9402L145.272 44.2149L148.557 42.9008L159.118 38.6763L160.002 54.5912L160.012 54.775L160.067 54.9509C160.439 56.1561 161.214 57.0322 162.34 57.4207C163.361 57.7729 164.465 57.6509 165.434 57.3967C167.379 56.8872 169.587 55.6222 171.443 54.4411C172.154 53.9885 172.839 53.5319 173.462 53.1115C173.464 53.2834 173.473 53.4546 173.487 53.6242C173.58 54.7823 173.918 56.0233 174.323 57.2436C174.621 58.143 174.979 59.0985 175.336 60.0495C175.463 60.3885 175.59 60.727 175.713 61.0621C176.194 62.3632 176.646 63.6556 176.976 64.9242C177.647 67.4996 177.741 69.7058 176.815 71.4837C175.91 73.2202 173.815 74.9447 169.154 76.0483C167.426 76.4575 164.611 76.6033 161.113 76.5145C157.653 76.4267 153.649 76.1139 149.612 75.663C141.507 74.7576 133.425 73.313 129.445 72.0758C128.243 71.702 126.929 71.3597 125.671 71.0318C124.804 70.8058 123.963 70.5866 123.203 70.3687C121.218 69.7997 119.452 69.1609 117.963 68.2179C116.5 67.2924 115.29 66.0643 114.428 64.2715C113.555 62.4573 113 59.9804 113 56.5082L113 53.5082L110.6 55.3082C107.936 57.3058 105.022 60.5957 102.11 64.1703C100.658 65.9535 99.1826 67.8386 97.7185 69.7089L97.6714 69.7692C96.1882 71.6639 94.7171 73.5425 93.2752 75.31C90.3655 78.8767 87.6742 81.8638 85.3669 83.567C84.2096 84.4213 83.2857 84.8474 82.5864 84.9526C81.9865 85.0429 81.5232 84.9102 81.0606 84.4476L80.8268 84.2137L80.5163 84.0999C77.4985 82.9934 75.7703 80.1806 75.1262 75.958C74.4818 71.7341 74.9957 66.4328 76.1805 61.05C77.3605 55.6892 79.1795 50.3654 81.0512 46.1442C81.9873 44.0332 82.9259 42.2219 83.7905 40.8312C84.0485 40.4162 84.2921 40.0516 84.5192 39.735C84.9109 40.4234 85.3713 40.9965 85.916 41.4342C87.0663 42.3584 88.3927 42.5239 89.6726 42.2244C90.8786 41.9422 92.0664 41.2487 93.1781 40.4297C94.3075 39.5975 95.471 38.5497 96.6287 37.4396C97.464 36.6387 98.2899 35.8134 99.1114 34.9925C100.631 33.4743 102.135 31.9709 103.657 30.6635C104.809 29.6745 105.898 28.8651 106.912 28.3098C107.179 28.1642 107.433 28.0396 107.677 27.9351C107.488 29.9139 107.724 31.5614 108.582 32.752C109.872 34.5431 112.03 34.67 113.96 34.2926C115.941 33.9053 118.259 32.8978 120.662 31.6219C123.09 30.3333 125.711 28.7115 128.318 27.0153C130.306 25.7217 132.272 24.3956 134.149 23.1293C137.261 21.0295 140.13 19.0939 142.457 17.7425C143.374 17.2096 144.169 16.7911 144.828 16.5015Z" fill="#FAC094" stroke="#36364D" stroke-width="3"/>
<path d="M128.717 173.852C128.526 174.112 128.345 174.351 128.176 174.568L128.084 174.471L117.189 163.081L108.784 149.715L107.784 148.125L106.455 149.451L100.942 154.949L96.8543 146.363L96.8537 146.362C96.6563 145.949 96.4668 145.593 96.2819 145.302C96.1139 145.038 95.8808 144.715 95.5667 144.474C95.2339 144.218 94.4856 143.844 93.6669 144.295C93.0712 144.623 92.8608 145.198 92.7941 145.393C92.6235 145.891 92.5712 146.536 92.5438 147.053C92.5195 147.512 92.5101 148.026 92.5026 148.524C92.0748 148.05 91.666 147.602 91.2755 147.174C89.3538 145.07 87.8747 143.449 86.753 141.605C85.3282 139.261 84.5 136.544 84.5 132.008C84.5 129.926 84.0284 127.276 83.5075 124.632C83.3961 124.066 83.282 123.499 83.168 122.933C82.7361 120.785 82.3069 118.652 82.04 116.686C81.6946 114.142 81.676 112.205 82.0854 111.035C82.272 110.502 82.5056 110.252 82.7332 110.122C82.9715 109.985 83.4203 109.857 84.2671 109.99C86.0658 110.272 88.4852 111.507 91.6425 113.385C92.5882 113.948 93.5923 114.563 94.6459 115.209C96.9888 116.644 99.5768 118.23 102.315 119.723C110.285 124.07 120.035 127.939 130.769 125.984C139.977 124.307 147.182 119.441 152.819 115.635C153.043 115.483 153.266 115.333 153.486 115.185C156.412 113.212 158.797 111.659 160.875 110.894C162.654 110.239 163.992 110.235 165.185 110.933C166.274 115.387 166.403 118.614 166.054 121.09C165.693 123.647 164.808 125.502 163.783 127.178C163.446 127.728 163.081 128.272 162.709 128.826C160.853 131.588 158.84 134.586 159.5 139.707C159.483 144.146 158.34 148.714 156.262 152.275C154.526 155.248 152.207 157.422 149.426 158.359C149.43 157.662 149.406 157.034 149.353 156.473C149.257 155.445 149.056 154.526 148.667 153.806C148.249 153.033 147.552 152.401 146.558 152.289C145.682 152.19 144.883 152.539 144.273 152.916C143.042 153.678 141.715 155.108 140.418 156.728C139.089 158.389 137.671 160.406 136.272 162.488C135.151 164.156 134.05 165.851 133.006 167.459C131.399 169.932 129.926 172.201 128.717 173.852Z" fill="#FAC094" stroke="#36364D" stroke-width="3"/>
<path d="M137.58 124.634L136.635 124.91L136.512 125.886C136.45 126.375 136.387 126.779 136.323 127.11C136.186 126.944 136.04 126.763 135.88 126.565C135.804 126.471 135.725 126.373 135.642 126.271C135.262 125.803 134.827 125.277 134.344 124.758C133.397 123.74 132.181 122.65 130.666 122.033L130.663 122.031L130.589 121.999C130.525 121.971 130.434 121.931 130.321 121.883C130.095 121.788 129.78 121.658 129.418 121.518C128.719 121.248 127.76 120.909 126.939 120.746C125.92 120.543 124.686 120.528 123.78 120.549C123.312 120.561 122.901 120.583 122.607 120.602C122.459 120.612 122.34 120.621 122.256 120.628C122.233 120.63 122.213 120.632 122.196 120.633C122.159 120.633 122.113 120.634 122.057 120.635C121.926 120.638 121.744 120.645 121.525 120.661C121.09 120.693 120.489 120.763 119.842 120.918C118.658 121.202 116.801 121.898 116.037 123.725C115.974 123.876 115.912 123.914 115.821 123.948C115.673 124.003 115.419 124.032 115.053 123.99C114.702 123.95 114.35 123.855 114.072 123.762C113.936 123.717 113.827 123.676 113.755 123.647C113.72 123.632 113.694 123.621 113.679 123.615L113.668 123.61L113.666 123.609L113.665 123.609L113.665 123.609L113.665 123.609L113.664 123.608L112.614 123.128L111.882 124.028C111.274 124.776 110.256 125.702 109.097 126.531C107.929 127.364 106.743 128.008 105.826 128.285C105.423 128.407 105.16 128.43 105.015 128.423C104.995 128.322 104.975 128.127 105.008 127.796C105.064 127.24 105.257 126.44 105.673 125.337L106.322 123.616L104.506 123.327C102.815 123.057 101.169 123.412 99.7335 123.903C98.6553 124.272 97.5814 124.763 96.6544 125.187C96.367 125.318 96.0937 125.443 95.8388 125.556C94.6254 126.093 93.9136 126.312 93.4945 126.292C93.3706 126.286 93.3477 126.261 93.3418 126.255C93.3414 126.254 93.3411 126.254 93.3408 126.253C93.3132 126.229 93.1881 126.098 93.0657 125.68C93.0689 125.677 93.0569 125.475 93.3212 124.977C93.6099 124.433 94.1172 123.749 94.8472 122.953C96.2992 121.372 98.4463 119.552 100.879 117.802C103.304 116.057 105.961 114.419 108.405 113.189C110.895 111.935 113.005 111.187 114.383 111.068C115.76 110.95 116.444 111.224 116.961 111.549C117.268 111.742 117.547 111.973 117.925 112.289L117.933 112.296C118.289 112.594 118.73 112.962 119.26 113.295C121.604 114.77 124.975 115.139 132.605 112.661C138.811 110.646 143.254 112.474 147.056 115.13C148.417 116.081 149.641 117.096 150.855 118.103C151.395 118.552 151.934 118.999 152.482 119.437C154.013 120.663 155.641 121.846 157.381 122.44C157.805 123.063 158.033 123.505 158.145 123.798C157.984 123.814 157.782 123.82 157.535 123.812C156.903 123.792 156.124 123.688 155.245 123.542C154.826 123.472 154.399 123.396 153.964 123.318L153.915 123.31C153.468 123.23 153.012 123.148 152.569 123.076C151.702 122.934 150.802 122.813 150.029 122.812C149.641 122.812 149.22 122.841 148.819 122.944C148.425 123.045 147.926 123.248 147.534 123.69C146.906 124.397 146.908 125.221 147.097 125.916C146.996 125.876 146.889 125.834 146.776 125.789C146.743 125.776 146.71 125.763 146.676 125.75C144.641 124.945 141.189 123.58 137.58 124.634ZM158.237 124.135C158.237 124.135 158.237 124.135 158.237 124.134L158.237 124.135Z" fill="#FAC094" stroke="#36364D" stroke-width="3"/>
<rect x="119.127" y="86.2329" width="8.76684" height="4.2029" fill="#36364D"/>
<path d="M97.455 81.6159L110.527 82.0978C117.703 82.3623 122.502 89.5911 119.961 96.3072L118.478 100.225C116.933 104.307 113.023 107.008 108.658 107.008H98.3219C93.6311 107.008 89.5094 103.897 88.2239 99.3858L86.9702 94.9862C85.015 88.1248 90.3253 81.3531 97.455 81.6159Z" stroke="#36364D" stroke-width="3"/>
<path d="M151.464 81.6069L137.676 82.1052C130.468 82.3657 125.662 89.6502 128.26 96.3796L129.769 100.29C131.332 104.338 135.225 107.008 139.565 107.008H150.562C155.233 107.008 159.342 103.924 160.645 99.4389L161.926 95.0306C163.923 88.1603 158.614 81.3485 151.464 81.6069Z" stroke="#36364D" stroke-width="3"/>
<path d="M474 208.508C474 219.847 471.415 224.969 467.732 227.002C465.846 228.042 463.469 228.404 460.554 228.172C457.637 227.94 454.294 227.124 450.572 225.925C446.855 224.728 442.833 223.175 438.555 221.501C438.157 221.345 437.757 221.188 437.354 221.03C433.448 219.499 429.348 217.893 425.146 216.411C415.887 213.147 405.995 210.438 396.244 210.438C377.405 210.438 362.54 206.771 352.379 197.732C342.254 188.726 336.5 174.111 336.5 151.508C336.5 128.917 342.694 106.204 353.526 89.1832C364.358 72.1611 379.695 61.0078 398 61.0078C406.821 61.0078 416.03 67.0397 424.997 77.3497C433.916 87.6041 442.347 101.809 449.629 117.509C464.207 148.94 474 185.966 474 208.508Z" fill="#FCE6A9" stroke="#36364D" stroke-width="3"/>
<path d="M461.5 236.508C461.5 249.145 454.246 260.733 442.218 269.223C430.194 277.711 413.505 283.008 395 283.008C376.495 283.008 359.806 277.711 347.782 269.223C335.754 260.733 328.5 249.145 328.5 236.508C328.5 223.871 335.754 212.282 347.782 203.792C359.806 195.305 376.495 190.008 395 190.008C413.505 190.008 430.194 195.305 442.218 203.792C454.246 212.282 461.5 223.871 461.5 236.508Z" fill="#FF7075" stroke="#36364D" stroke-width="3"/>
<rect x="311" y="221.508" width="167" height="109" rx="8" fill="#EDEDF6"/>
<path d="M311 307.508H478V320.508C478 324.927 474.418 328.508 470 328.508H319C314.582 328.508 311 324.927 311 320.508V307.508Z" fill="#DBDCED"/>
<path d="M478 243.508L311 243.508V230.508C311 226.09 314.582 222.508 319 222.508L470 222.508C474.418 222.508 478 226.09 478 230.508V243.508Z" fill="#DBDCED"/>
<rect x="312.5" y="223.008" width="164" height="106" rx="6.5" stroke="#36364D" stroke-width="3"/>
<path d="M407.519 274.365C406.136 271.311 403.779 268.823 400.85 267.324C397.92 265.824 394.6 265.407 391.453 266.143C388.307 266.879 385.53 268.723 383.595 271.36C381.66 273.997 380.687 277.264 380.842 280.605C380.997 283.946 382.27 287.153 384.444 289.681C386.619 292.21 389.56 293.902 392.767 294.469C395.974 295.037 399.248 294.445 402.031 292.794C404.814 291.144 406.935 288.537 408.031 285.417L400.991 280.303L407.519 274.365Z" fill="white"/>
<path d="M400.438 279.068L399.023 280.333L400.564 281.423L406.769 285.811C405.656 288.177 403.861 290.158 401.609 291.485C399.03 293.004 396.008 293.573 393.059 293.093C390.109 292.612 387.412 291.112 385.43 288.844C383.448 286.577 382.305 283.684 382.195 280.661C382.086 277.637 383.016 274.671 384.826 272.268C386.635 269.864 389.211 268.171 392.116 267.474C395.021 266.777 398.077 267.119 400.764 268.446C403.124 269.611 405.071 271.473 406.354 273.775L400.438 279.068Z" stroke="#36364D" stroke-width="3"/>
<rect width="8.02985" height="2.71836" rx="1.35918" transform="matrix(0.722911 -0.690941 0.682878 0.730532 393.302 262.056)" fill="#36364D"/>
<rect x="404" y="319.508" width="15" height="3" rx="1.5" fill="#4E51A6"/>
<rect x="422" y="319.508" width="30" height="3" rx="1.5" fill="#4E51A6"/>
<rect x="455" y="319.508" width="15" height="3" rx="1.5" fill="#4E51A6"/>
<rect x="467" y="322.508" width="39" height="3" rx="1.5" transform="rotate(-90 467 322.508)" fill="#4E51A6"/>
<rect x="319" y="251.508" width="22" height="3" rx="1.5" transform="rotate(-90 319 251.508)" fill="#4E51A6"/>
<rect x="319" y="229.508" width="32" height="3" rx="1.5" fill="#4E51A6"/>
<rect x="355" y="229.508" width="9" height="3" rx="1.5" fill="#4E51A6"/>
<circle cx="519.5" cy="292.008" r="12.5" stroke="#36364D" stroke-width="4"/>
<mask id="path-56-inside-5" fill="white">
<rect x="487" y="266.508" width="35" height="50" rx="2"/>
</mask>
<rect x="487" y="266.508" width="35" height="50" rx="2" fill="#4E51A6" stroke="#36364D" stroke-width="6" mask="url(#path-56-inside-5)"/>
<rect x="505" y="307.508" width="7" height="3" rx="1.5" fill="#DBDCED"/>
<rect x="493" y="307.508" width="10" height="3" rx="1.5" fill="#DBDCED"/>
<rect x="493" y="310.508" width="24" height="3" rx="1.5" transform="rotate(-90 493 310.508)" fill="#DBDCED"/>
<rect x="498" y="262.508" width="7" height="3" rx="1.5" transform="rotate(-90 498 262.508)" fill="#36364D"/>
<rect x="503" y="260.508" width="18" height="3" rx="1.5" transform="rotate(-90 503 260.508)" fill="#36364D"/>
<path d="M509.5 261.508C508.672 261.508 508 260.836 508 260.008V250.008C508 249.179 508.672 248.508 509.5 248.508V248.508C510.328 248.508 511 249.179 511 250.008V260.008C511 260.836 510.328 261.508 509.5 261.508V261.508Z" fill="#36364D"/>
<rect x="382.5" y="164.008" width="30" height="46" rx="15" fill="#FDECE7" stroke="#36364D" stroke-width="3"/>
<path d="M429.95 111.954L430.485 115.972C431.139 120.876 430.843 125.86 429.613 130.653L422.646 157.804C419.553 169.862 408.479 178.137 396.039 177.687C385.193 177.295 375.684 170.325 372.046 160.099L363.648 136.494C361.288 129.862 360.701 122.728 361.944 115.798L362.904 110.445C365.806 94.2716 379.877 82.5 396.309 82.5C413.319 82.5 427.702 95.0929 429.95 111.954Z" fill="#FDECE7" stroke="#36364D" stroke-width="3"/>
<path d="M403 132.008C403 129.977 403.856 128 405.443 126.366C407.03 124.732 409.264 123.528 411.818 122.929C414.371 122.331 417.11 122.371 419.632 123.042C422.154 123.713 423.496 123.829 425 125.508L415.5 132.008H403Z" fill="#36364D"/>
<path d="M403.5 132.008C403.5 135.898 412.204 136.008 416 136.008C419.796 136.008 425.5 131.897 425.5 128.008C425.5 124.118 417.796 125.008 414 125.008C410.204 125.008 403.5 128.118 403.5 132.008Z" fill="white"/>
<path d="M408 128.952C408 132.021 410.686 134.508 414 134.508C417.314 134.508 420 132.021 420 128.952C420 125.884 417.314 124.508 414 124.508C410.686 124.508 408 125.884 408 128.952Z" fill="#14A389"/>
<ellipse rx="3.49999" ry="3.5" transform="matrix(-1 0 0 1 414.5 128.008)" fill="#36364D"/>
<ellipse rx="1.5" ry="1.5" transform="matrix(-1 0 0 1 416.5 127.008)" fill="white"/>
<ellipse rx="0.499999" ry="0.5" transform="matrix(-1 0 0 1 413.5 129.008)" fill="white"/>
<path d="M403.5 131.68C403.5 132.775 403.9 133.56 404.561 134.151C405.24 134.757 406.223 135.18 407.409 135.465C409.684 136.011 412.517 136.009 414.906 136.008C415.016 136.008 415.126 136.008 415.234 136.008C417.556 136.008 420.146 135.157 422.148 133.709C424.152 132.261 425.5 130.27 425.5 128.008C425.5 126.877 425.168 126.189 424.669 125.745C424.151 125.284 423.38 125.02 422.38 124.897C421.385 124.775 420.229 124.799 418.992 124.858C418.685 124.872 418.373 124.889 418.058 124.906C417.12 124.956 416.156 125.008 415.234 125.008C412.863 125.008 409.881 125.552 407.509 126.688C405.121 127.832 403.5 129.495 403.5 131.68Z" stroke="#36364D"/>
<path d="M422.985 122.31C423.194 121.685 422.395 121.223 421.957 121.715L419.977 123.943C419.94 123.985 419.92 124.039 419.922 124.095V124.095C419.926 124.268 420.119 124.368 420.263 124.272L422.745 122.623C422.858 122.548 422.942 122.438 422.985 122.31V122.31Z" fill="#36364D"/>
<path d="M414.037 125.395C414.634 125.056 414.314 124.143 413.636 124.251L409.995 124.833C409.944 124.841 409.898 124.867 409.864 124.906V124.906C409.748 125.042 409.837 125.253 410.016 125.263L413.698 125.474C413.816 125.481 413.934 125.453 414.037 125.395V125.395Z" fill="#36364D"/>
<path d="M424.634 123.18C425.009 122.567 424.28 121.878 423.689 122.286L421.151 124.037C421.099 124.073 421.063 124.127 421.05 124.189V124.189C421.012 124.374 421.19 124.53 421.369 124.468L424.284 123.462C424.43 123.411 424.554 123.312 424.634 123.18V123.18Z" fill="#36364D"/>
<path d="M427.497 124.874C428.12 124.423 427.637 123.447 426.9 123.668L422.605 124.958C422.553 124.973 422.508 125.006 422.478 125.05V125.05C422.364 125.216 422.495 125.44 422.695 125.421L427.16 125.001C427.282 124.99 427.398 124.946 427.497 124.874V124.874Z" fill="#36364D"/>
<path d="M445.737 141.427C440.722 141.062 436.851 139.484 433.793 137.303C430.269 134.79 427.749 131.42 425.826 127.986C424.292 125.248 423.175 122.546 422.213 120.217C421.961 119.607 421.719 119.022 421.483 118.47C420.936 117.186 420.385 115.988 419.785 115.13C419.24 114.351 418.242 113.271 416.744 113.53C415.415 113.76 414.457 114.219 413.765 114.903C413.183 115.477 412.878 116.145 412.705 116.523C412.685 116.568 412.666 116.609 412.649 116.645C412.554 116.846 412.505 116.927 412.471 116.972C412.453 116.996 412.453 116.992 412.45 116.994C412.403 117.017 412.069 117.152 410.965 116.998C410.146 116.884 409.132 116.38 407.911 115.463C406.713 114.563 405.462 113.379 404.165 112.093C403.829 111.759 403.488 111.418 403.145 111.074C402.194 110.12 401.226 109.15 400.295 108.297C399.038 107.145 397.705 106.07 396.379 105.464C393.437 104.122 391.167 105.659 389.758 106.613C389.703 106.65 389.649 106.687 389.597 106.722C388.792 107.264 388.325 107.543 387.929 107.627C387.721 107.671 387.443 107.696 386.921 107.22C385.36 105.797 382.055 101.908 378.863 97.8353C377.283 95.8187 375.756 93.7905 374.518 92.0487C373.26 90.2777 372.361 88.885 371.98 88.106C371.844 87.8273 371.811 87.4283 372.232 86.664C372.665 85.8776 373.421 85.0058 374.366 84.0008C374.551 83.805 374.743 83.6034 374.939 83.3977C375.692 82.6086 376.504 81.7574 377.155 80.9281C377.951 79.9142 378.766 78.6259 378.795 77.196C378.805 76.7204 378.809 76.3469 378.812 76.0322C378.816 75.7034 378.818 75.4387 378.826 75.1888C378.841 74.7389 378.87 74.5449 378.911 74.3998C378.951 74.2582 379.025 74.0804 379.246 73.7015C379.389 73.4559 379.561 73.1789 379.788 72.8143C379.931 72.5845 380.095 72.3198 380.288 72.0062C380.684 71.3611 381 71.0647 381.241 70.9031C381.482 70.7416 381.753 70.6433 382.208 70.5424C382.35 70.5109 382.506 70.4806 382.675 70.4477C383.361 70.3144 384.265 70.1387 385.347 69.6687L397.212 89.5343L397.649 90.2651L398.5 90.2651L414.372 90.2651L416.806 98.68L417.075 99.6116L418.035 99.7483L429.435 101.372L437.861 122.073L445.737 141.427Z" fill="#FCE6A9" stroke="#36364D" stroke-width="3"/>
<path d="M356.797 107.172L351.206 127.048C352.323 126.231 353.663 125.047 355.063 123.756C355.6 123.261 356.147 122.747 356.688 122.241C357.643 121.347 358.576 120.473 359.389 119.754C360.03 119.186 360.642 118.673 361.176 118.292C361.442 118.102 361.72 117.923 361.994 117.784C362.237 117.661 362.624 117.491 363.072 117.474L363.308 117.465L363.535 117.529C365.64 118.121 367.813 118.159 369.94 117.64C372.071 117.121 374.137 116.048 376.016 114.452C377.896 112.855 379.548 110.769 380.86 108.296C381.094 107.854 381.395 106.842 381.712 105.323C382.017 103.866 382.306 102.114 382.571 100.323C382.824 98.6115 383.061 96.8277 383.267 95.2696C383.483 93.6419 383.666 92.2604 383.801 91.4653C383.81 91.4114 383.82 91.3592 383.829 91.3089C383.817 91.2289 383.805 91.1443 383.794 91.055C383.456 88.4783 382.789 86.0152 381.829 83.7696L364.449 87.0243L356.797 107.172Z" fill="#FCE6A9" stroke="#36364D" stroke-width="3"/>
<path d="M429.828 101.686C427.624 106.721 423.452 104.114 403.72 95.4775C383.989 86.8411 376.636 79.9787 378.84 74.9437C381.044 69.9087 384.782 67.1229 404.513 75.7593C424.245 84.3957 432.032 96.6514 429.828 101.686Z" fill="#FCE6A9"/>
<path d="M413.995 103.263C410.135 107.733 398.394 107.437 383.142 94.2672C367.891 81.0971 381.688 82.112 385.548 77.6421C389.408 73.1723 379.983 56.5298 395.234 69.6998C410.486 82.8699 417.855 98.793 413.995 103.263Z" fill="#FCE6A9"/>
<path d="M414.748 101.208C411.985 104.407 401.841 102.693 387.064 89.9329C372.287 77.1724 384.29 79.7365 387.053 76.5374C389.815 73.3382 379.618 58.4465 394.396 71.207C409.173 83.9675 417.51 98.009 414.748 101.208Z" fill="#FCE6A9"/>
<path d="M382.771 68.4585C391.207 65.8273 402.824 65.6349 404.988 72.5743C407.153 79.5138 394.176 79.3645 385.74 81.9957C377.305 84.6269 370.046 93.6968 367.882 86.7573C365.717 79.8178 374.335 71.0896 382.771 68.4585Z" fill="#FCE6A9"/>
<path d="M420.178 75.7966C425.734 82.6676 430.197 93.3953 424.545 97.9662C418.893 102.537 414.246 90.42 408.689 83.549C403.133 76.6781 392.026 73.2755 397.678 68.7046C403.33 64.1337 414.621 68.9257 420.178 75.7966Z" fill="#FCE6A9"/>
<path d="M391.597 77.8658C396.255 86.5933 394.138 88.2823 385.284 93.0079C376.43 97.7335 360.942 110.952 356.284 102.225C351.626 93.4973 364.077 80.5299 372.931 75.8043C381.785 71.0787 386.939 69.1384 391.597 77.8658Z" fill="#FCE6A9"/>
<path d="M365.061 106.495C355.862 107.066 357.163 103.467 356.638 95.0218C356.113 86.577 361.565 86.8393 370.765 86.2679C379.964 85.6965 380.244 81.7244 380.769 90.1692C381.293 98.614 374.261 105.923 365.061 106.495Z" fill="#FCE6A9"/>
<rect x="425.816" y="98.8145" width="7" height="11" transform="rotate(-28.1986 425.816 98.8145)" fill="#FCE6A9"/>
<rect x="427" y="94.5078" width="7" height="11" fill="#FCE6A9"/>
<rect x="421" y="91.792" width="8.33738" height="12.5728" transform="rotate(-39.3302 421 91.792)" fill="#FCE6A9"/>
<rect x="427" y="98.0693" width="8.33738" height="12.5728" transform="rotate(-33.1675 427 98.0693)" fill="#FCE6A9"/>
<rect x="432" y="103.869" width="7.22618" height="14.501" transform="rotate(-19.0667 432 103.869)" fill="#FCE6A9"/>
<rect x="437" y="111.869" width="7.22618" height="14.501" transform="rotate(-19.0667 437 111.869)" fill="#FCE6A9"/>
<rect x="434" y="111.869" width="7.22618" height="14.501" transform="rotate(-19.0667 434 111.869)" fill="#FCE6A9"/>
<rect x="429" y="106.869" width="7.22618" height="14.501" transform="rotate(-19.0667 429 106.869)" fill="#FCE6A9"/>
<rect x="441" y="122.869" width="7.22618" height="14.501" transform="rotate(-19.0667 441 122.869)" fill="#FCE6A9"/>
<rect x="433" y="117.869" width="7.22618" height="14.501" transform="rotate(-19.0667 433 117.869)" fill="#FCE6A9"/>
<rect x="440" y="136.869" width="7.22618" height="14.501" transform="rotate(-19.0667 440 136.869)" fill="#FCE6A9"/>
<rect x="437.078" y="133.501" width="8.24956" height="14.501" transform="rotate(0.398764 437.078 133.501)" fill="#FCE6A9"/>
<rect x="431.958" y="126.901" width="14.7291" height="14.501" transform="rotate(13.8727 431.958 126.901)" fill="#FCE6A9"/>
<rect x="437" y="121.508" width="7.22618" height="14.501" fill="#FCE6A9"/>
<rect x="348.679" y="114.197" width="11.3878" height="16.1553" transform="rotate(1.63561 348.679 114.197)" fill="#FCE6A9"/>
<rect x="351.906" y="111" width="7.69468" height="11" transform="rotate(15.3187 351.906 111)" fill="#FCE6A9"/>
<rect x="353.094" y="99.5078" width="8" height="17" transform="rotate(17.4351 353.094 99.5078)" fill="#FCE6A9"/>
<rect x="365.515" y="106.44" width="7.92066" height="15" transform="rotate(97.5633 365.515 106.44)" fill="#FCE6A9"/>
<rect x="377.478" y="94.2573" width="8.70752" height="12.5728" transform="rotate(-40.8353 377.478 94.2573)" fill="#FCE6A9"/>
<path d="M389 132.008C389 129.977 388.144 128 386.557 126.366C384.97 124.732 382.736 123.528 380.182 122.929C377.629 122.331 374.89 122.371 372.368 123.042C369.846 123.713 368.504 123.829 367 125.508L376.5 132.008H389Z" fill="#36364D"/>
<path d="M387.787 123.716C387.276 121.491 385.185 118.701 383.227 117.267C381.269 115.832 379.547 115.829 376.908 115.745C374.268 115.662 369.32 117.618 369.32 117.618C369.32 117.618 365.753 119.347 364.709 121.522C364.709 121.522 368.016 119.72 370.305 119.083C372.571 118.453 373.913 118.244 376.279 118.287C378.578 118.328 379.961 118.312 382.143 119.246C384.65 120.32 387.787 123.716 387.787 123.716Z" fill="#36364D"/>
<path d="M402.872 122.915C403.458 120.865 405.667 118.4 407.7 117.197C409.732 115.994 411.482 116.116 414.167 116.23C416.852 116.344 421.822 118.542 421.822 118.542C421.822 118.542 425.395 120.424 426.391 122.541C426.391 122.541 423.084 120.608 420.777 119.844C418.493 119.087 417.135 118.794 414.73 118.661C412.392 118.532 410.987 118.415 408.742 119.133C406.162 119.958 402.872 122.915 402.872 122.915Z" fill="#36364D"/>
<path d="M388.5 132.008C388.5 135.898 379.796 136.008 376 136.008C372.204 136.008 366.5 131.897 366.5 128.008C366.5 124.118 374.204 125.008 378 125.008C381.796 125.008 388.5 128.118 388.5 132.008Z" fill="white"/>
<path d="M384 128.952C384 132.021 381.314 134.508 378 134.508C374.686 134.508 372 132.021 372 128.952C372 125.884 374.686 124.508 378 124.508C381.314 124.508 384 125.884 384 128.952Z" fill="#14A3A3"/>
<circle cx="377.5" cy="128.008" r="3.5" fill="#36364D"/>
<circle cx="375.5" cy="127.008" r="1.5" fill="white"/>
<circle cx="378.5" cy="129.008" r="0.5" fill="white"/>
<path d="M388.5 131.68C388.5 132.775 388.101 133.56 387.44 134.151C386.76 134.757 385.777 135.18 384.591 135.465C382.316 136.011 379.483 136.009 377.094 136.008C376.984 136.008 376.874 136.008 376.766 136.008C374.444 136.008 371.854 135.157 369.852 133.709C367.848 132.261 366.5 130.27 366.5 128.008C366.5 126.877 366.832 126.189 367.331 125.745C367.849 125.284 368.62 125.02 369.62 124.897C370.615 124.775 371.771 124.799 373.008 124.858C373.315 124.872 373.627 124.889 373.942 124.906C374.881 124.956 375.844 125.008 376.766 125.008C379.137 125.008 382.119 125.552 384.491 126.688C386.879 127.832 388.5 129.495 388.5 131.68Z" stroke="#36364D"/>
<path d="M369.015 122.31C368.806 121.685 369.605 121.223 370.043 121.715L372.023 123.943C372.06 123.985 372.08 124.039 372.078 124.095V124.095C372.074 124.268 371.881 124.368 371.737 124.272L369.255 122.623C369.142 122.548 369.058 122.438 369.015 122.31V122.31Z" fill="#36364D"/>
<path d="M377.963 125.395C377.366 125.056 377.686 124.143 378.364 124.251L382.005 124.833C382.056 124.841 382.102 124.867 382.136 124.906V124.906C382.252 125.042 382.163 125.253 381.984 125.263L378.302 125.474C378.184 125.481 378.066 125.453 377.963 125.395V125.395Z" fill="#36364D"/>
<path d="M367.366 123.18C366.992 122.567 367.72 121.878 368.311 122.286L370.85 124.037C370.901 124.073 370.937 124.127 370.95 124.189V124.189C370.988 124.374 370.81 124.53 370.631 124.468L367.716 123.462C367.571 123.411 367.447 123.312 367.366 123.18V123.18Z" fill="#36364D"/>
<path d="M364.503 124.874C363.88 124.423 364.363 123.447 365.1 123.668L369.395 124.958C369.447 124.973 369.492 125.006 369.522 125.05V125.05C369.636 125.216 369.505 125.44 369.305 125.421L364.84 125.001C364.718 124.99 364.602 124.946 364.503 124.874V124.874Z" fill="#36364D"/>
<rect x="394" y="149.508" width="6" height="1" rx="0.5" fill="#36364D"/>
<path d="M406 160.5C406 162.224 405.052 163.877 403.364 165.096C401.676 166.315 399.387 167 397 167C394.613 167 392.324 166.315 390.636 165.096C388.948 163.877 388 162.224 388 160.5L397 160.5H406Z" fill="#36364D"/>
<mask id="path-119-inside-6" fill="white">
<rect x="555" y="301.508" width="106" height="11" rx="2"/>
</mask>
<rect x="555" y="301.508" width="106" height="11" rx="2" fill="#4E51A6" stroke="#36364D" stroke-width="6" mask="url(#path-119-inside-6)"/>
<path d="M573 302.229L627.614 258.447C628.26 257.929 629.204 258.032 629.722 258.679V258.679C630.24 259.325 630.136 260.269 629.489 260.787L575.5 304.009L574.833 303.842C573.997 303.633 573.314 303.032 573 302.229V302.229Z" fill="#36364D"/>
<path d="M601.154 161.008C601.657 161.008 602.103 161.335 602.254 161.816L632.549 258.254C632.797 259.044 632.356 259.885 631.566 260.13V260.13C630.775 260.376 629.936 259.933 629.693 259.142L600.058 162.696C600.02 162.571 600 162.442 600 162.312L600 162.162C600 161.525 600.517 161.008 601.154 161.008V161.008Z" fill="#36364D"/>
<path d="M569.52 177.621C569.322 177.068 569.56 176.455 570.077 176.179L599.109 160.721C600.019 160.237 601.123 160.862 601.176 161.891V161.891C601.204 162.434 600.916 162.945 600.437 163.203L572.06 178.46C571.385 178.823 570.554 178.728 569.979 178.221L569.852 178.11C569.702 177.978 569.587 177.809 569.52 177.621V177.621Z" fill="#36364D"/>
<circle cx="629" cy="259.508" r="10.5" fill="#DBDCED" stroke="#36364D" stroke-width="3"/>
<circle cx="571" cy="189.508" r="10.5" fill="#FF9F80" stroke="#36364D" stroke-width="3"/>
<circle cx="599" cy="162.508" r="4.5" fill="#DBDCED" stroke="#36364D" stroke-width="3"/>
<mask id="path-126-inside-7" fill="white">
<path d="M552.194 185.169C554.102 180.22 557.8 176.194 562.475 173.976C567.149 171.758 572.417 171.531 577.12 173.344C581.823 175.157 585.575 178.862 587.551 183.643C589.528 188.425 589.566 193.892 587.658 198.841L569.926 192.005L552.194 185.169Z"/>
</mask>
<path d="M552.194 185.169C554.102 180.22 557.8 176.194 562.475 173.976C567.149 171.758 572.417 171.531 577.12 173.344C581.823 175.157 585.575 178.862 587.551 183.643C589.528 188.425 589.566 193.892 587.658 198.841L569.926 192.005L552.194 185.169Z" fill="#4E51A6" stroke="#36364D" stroke-width="6" mask="url(#path-126-inside-7)"/>
<circle cx="577" cy="174.508" r="3.5" fill="#DBDCED" stroke="#36364D" stroke-width="3"/>
<path d="M495.37 278H496.342L494.8 273.998H493.732L492.184 278H493.156L493.408 277.322H495.124L495.37 278ZM494.266 274.85L494.89 276.572H493.642L494.266 274.85ZM496.531 278H499.075V277.25H497.383V273.998H496.531V278ZM499.492 278H500.344V273.998H499.492V278ZM500.767 276.002C500.767 277.208 501.649 278.072 502.855 278.072C504.067 278.072 504.949 277.208 504.949 276.002C504.949 274.796 504.067 273.932 502.855 273.932C501.649 273.932 500.767 274.796 500.767 276.002ZM504.073 276.002C504.073 276.746 503.592 277.316 502.855 277.316C502.117 277.316 501.643 276.746 501.643 276.002C501.643 275.252 502.117 274.688 502.855 274.688C503.592 274.688 504.073 275.252 504.073 276.002ZM508.126 278H508.948V273.998H508.096V276.512L506.242 273.998H505.366V278H506.218V275.39L508.126 278ZM509.557 278H512.389V277.25H510.409V276.344H512.347V275.594H510.409V274.748H512.389V273.998H509.557V278ZM512.876 278H514.454C515.708 278 516.578 277.208 516.578 276.002C516.578 274.796 515.708 273.998 514.454 273.998H512.876V278ZM513.728 277.25V274.748H514.454C515.276 274.748 515.708 275.294 515.708 276.002C515.708 276.68 515.246 277.25 514.454 277.25H513.728Z" fill="white"/>
<path d="M236.826 263H238.122L236.066 257.664H234.642L232.578 263H233.874L234.21 262.096H236.498L236.826 263ZM235.354 258.8L236.186 261.096H234.522L235.354 258.8ZM238.375 263H241.767V262H239.511V257.664H238.375V263ZM242.323 263H243.459V257.664H242.323V263ZM244.022 260.336C244.022 261.944 245.198 263.096 246.806 263.096C248.422 263.096 249.598 261.944 249.598 260.336C249.598 258.728 248.422 257.576 246.806 257.576C245.198 257.576 244.022 258.728 244.022 260.336ZM248.43 260.336C248.43 261.328 247.79 262.088 246.806 262.088C245.822 262.088 245.19 261.328 245.19 260.336C245.19 259.336 245.822 258.584 246.806 258.584C247.79 258.584 248.43 259.336 248.43 260.336ZM253.835 263H254.931V257.664H253.795V261.016L251.323 257.664H250.155V263H251.291V259.52L253.835 263ZM255.743 263H259.519V262H256.879V260.792H259.463V259.792H256.879V258.664H259.519V257.664H255.743V263ZM260.167 263H262.271C263.943 263 265.103 261.944 265.103 260.336C265.103 258.728 263.943 257.664 262.271 257.664H260.167V263ZM261.303 262V258.664H262.271C263.367 258.664 263.943 259.392 263.943 260.336C263.943 261.24 263.327 262 262.271 262H261.303Z" fill="#36364D"/>
<path d="M34.8939 303.98V306.08H37.7139V307.412H34.8939V309.632H38.0739V311H33.2139V302.612H38.0739V303.98H34.8939ZM42.7686 302.624C43.6486 302.624 44.4206 302.796 45.0846 303.14C45.7566 303.484 46.2726 303.976 46.6326 304.616C47.0006 305.248 47.1846 305.984 47.1846 306.824C47.1846 307.664 47.0006 308.4 46.6326 309.032C46.2726 309.656 45.7566 310.14 45.0846 310.484C44.4206 310.828 43.6486 311 42.7686 311H39.8406V302.624H42.7686ZM42.7086 309.572C43.5886 309.572 44.2686 309.332 44.7486 308.852C45.2286 308.372 45.4686 307.696 45.4686 306.824C45.4686 305.952 45.2286 305.272 44.7486 304.784C44.2686 304.288 43.5886 304.04 42.7086 304.04H41.5206V309.572H42.7086Z" fill="#36364D"/>
<path d="M323.675 322L320.627 318.268V322H318.947V313.624H320.627V317.38L323.675 313.624H325.703L322.247 317.776L325.799 322H323.675ZM331.464 322L329.616 318.736H328.824V322H327.144V313.624H330.288C330.936 313.624 331.488 313.74 331.944 313.972C332.4 314.196 332.74 314.504 332.964 314.896C333.196 315.28 333.312 315.712 333.312 316.192C333.312 316.744 333.152 317.244 332.832 317.692C332.512 318.132 332.036 318.436 331.404 318.604L333.408 322H331.464ZM328.824 317.476H330.228C330.684 317.476 331.024 317.368 331.248 317.152C331.472 316.928 331.584 316.62 331.584 316.228C331.584 315.844 331.472 315.548 331.248 315.34C331.024 315.124 330.684 315.016 330.228 315.016H328.824V317.476ZM336.751 313.624V322H335.071V313.624H336.751ZM341.543 322.084C340.959 322.084 340.431 321.984 339.959 321.784C339.495 321.584 339.127 321.296 338.855 320.92C338.583 320.544 338.443 320.1 338.435 319.588H340.235C340.259 319.932 340.379 320.204 340.595 320.404C340.819 320.604 341.123 320.704 341.507 320.704C341.899 320.704 342.207 320.612 342.431 320.428C342.655 320.236 342.767 319.988 342.767 319.684C342.767 319.436 342.691 319.232 342.539 319.072C342.387 318.912 342.195 318.788 341.963 318.7C341.739 318.604 341.427 318.5 341.027 318.388C340.483 318.228 340.039 318.072 339.695 317.92C339.359 317.76 339.067 317.524 338.819 317.212C338.579 316.892 338.459 316.468 338.459 315.94C338.459 315.444 338.583 315.012 338.831 314.644C339.079 314.276 339.427 313.996 339.875 313.804C340.323 313.604 340.835 313.504 341.411 313.504C342.275 313.504 342.975 313.716 343.511 314.14C344.055 314.556 344.355 315.14 344.411 315.892H342.563C342.547 315.604 342.423 315.368 342.191 315.184C341.967 314.992 341.667 314.896 341.291 314.896C340.963 314.896 340.699 314.98 340.499 315.148C340.307 315.316 340.211 315.56 340.211 315.88C340.211 316.104 340.283 316.292 340.427 316.444C340.579 316.588 340.763 316.708 340.979 316.804C341.203 316.892 341.515 316.996 341.915 317.116C342.459 317.276 342.903 317.436 343.247 317.596C343.591 317.756 343.887 317.996 344.135 318.316C344.383 318.636 344.507 319.056 344.507 319.576C344.507 320.024 344.391 320.44 344.159 320.824C343.927 321.208 343.587 321.516 343.139 321.748C342.691 321.972 342.159 322.084 341.543 322.084ZM351.904 313.624V314.98H349.672V322H347.992V314.98H345.76V313.624H351.904ZM355.049 313.624V322H353.369V313.624H355.049Z" fill="#4E51A6"/>
</svg>
